<svg width="19" height="47" viewBox="0 0 19 47" fill="none" xmlns="http://www.w3.org/2000/svg">
<path d="M9.70189 45.9458C9.93559 46.3505 10.6753 45.8464 10.9732 45.5973C11.0066 45.6551 11.0618 45.6232 11.0618 45.6232C11.5704 45.4838 12.1881 44.8959 12.3191 44.3576C13.2451 39.9678 15.3346 36.0629 18.3898 33.0653C18.5991 32.7903 19.2053 32.0548 18.8278 31.656C18.395 31.289 17.7439 31.8191 17.446 32.0682C15.2512 34.2606 13.434 36.8518 12.1266 39.6884C11.251 35.8762 10.4087 32.1219 9.8207 28.2978C9.39453 24.4431 8.71585 23.525 9.12203 8.81086C9.18172 6.64837 9.5478 4.4209 9.5001 2.02035C9.46201 0.134023 8.7454 0.511302 8.3677 0.511275C7.16173 3.90612 7.41238 14.5948 7.23631 18.2432C6.87515 26.1619 8.62489 34.7709 10.443 42.5109C7.84012 38.3852 5.0716 34.3551 2.08219 30.4526C1.72649 29.964 0.943119 30.6476 0.700402 30.8648C0.38063 31.2037 -0.0598638 31.8435 0.262448 32.2742C3.60755 36.6653 6.76516 41.2418 9.70189 45.9458Z" fill="black"/>
</svg>
