<svg width="32" height="32" viewBox="0 0 32 32" fill="none" xmlns="http://www.w3.org/2000/svg">
<path d="M20.0638 3.13726C20.8425 3.1318 21.5506 3.58734 21.8683 4.29804L22.1978 5.01961C23.032 6.87387 24.5169 8.3583 26.3717 9.19216L27.0622 9.4902C28.0333 9.93931 28.487 11.0664 28.0978 12.0627L27.8467 12.7373C27.1169 14.6194 27.1169 16.7061 27.8467 18.5882L28.1135 19.3569C28.4992 20.3315 28.0499 21.4371 27.0935 21.8667L26.3717 22.1961C24.5169 23.0299 23.032 24.5144 22.1978 26.3686L21.8997 27.0588C21.578 27.7754 20.8652 28.2361 20.0795 28.2353C19.8223 28.2311 19.5676 28.1834 19.3263 28.0941L18.6516 27.8431C17.7072 27.4724 16.7005 27.286 15.6859 27.2941C14.6933 27.2867 13.7082 27.4677 12.783 27.8275L12.0142 28.0941C11.7904 28.1873 11.5504 28.2353 11.3081 28.2353C10.5294 28.2408 9.82123 27.7852 9.50355 27.0745L9.17403 26.3529C8.3399 24.4987 6.85499 23.0143 5.00013 22.1804L4.30971 21.9608C3.33861 21.5117 2.88489 20.3846 3.27408 19.3882L3.52514 18.7137C4.25495 16.8316 4.25495 14.7448 3.52514 12.8627L3.25839 12.0941C2.87269 11.1195 3.32196 10.0139 4.27833 9.58431L5.00013 9.2549C6.87479 8.40506 8.36757 6.89041 9.18972 5.00392L9.48785 4.31373C9.80955 3.59716 10.5224 3.13643 11.3081 3.13726C11.5653 3.14141 11.82 3.18914 12.0612 3.27843L12.736 3.52941C13.6754 3.8982 14.6766 4.08453 15.6859 4.07843C16.6786 4.08585 17.6637 3.90487 18.5888 3.5451L19.3577 3.27843C19.5815 3.18524 19.8214 3.13726 20.0638 3.13726Z" fill="white"/>
<path fill-rule="evenodd" clip-rule="evenodd" d="M20.0642 0.00013492C19.4361 0.000458879 18.8136 0.117479 18.2283 0.345233L17.5065 0.6119C16.9244 0.830028 16.3079 0.941612 15.6863 0.941311C15.0647 0.941612 14.4481 0.830028 13.8661 0.6119L13.1443 0.345233C10.6055 -0.63466 7.74366 0.544163 6.63236 3.02759L6.27146 3.73347C5.75374 4.85601 4.85237 5.75708 3.72946 6.27464L3.02335 6.58837C0.545219 7.70521 -0.631594 10.5603 0.340131 13.0982L0.606884 13.8197C1.06225 14.9901 1.06225 16.2886 0.606884 17.459L0.340131 18.1805C-0.631594 20.7184 0.545219 23.5735 3.02335 24.6903L3.72946 25.0041C4.86875 25.5448 5.77229 26.4815 6.27146 27.6393L6.58529 28.3452C7.69658 30.8287 10.5584 32.0075 13.0972 31.0276L13.819 30.7609C14.9927 30.3219 16.2857 30.3219 17.4594 30.7609L18.1812 31.0276C20.72 32.0075 23.5818 30.8287 24.6931 28.3452L25.0069 27.6393C25.5479 26.5004 26.4849 25.5972 27.6431 25.0982L28.3492 24.7844C30.8273 23.6676 32.0041 20.8125 31.0324 18.2746L30.7657 17.5531C30.3103 16.3827 30.3103 15.0842 30.7657 13.9139L31.0324 13.1923C32.0041 10.6544 30.8273 7.79932 28.3492 6.68249L27.6431 6.27464C26.5202 5.75708 25.6188 4.85601 25.1011 3.73347L24.7873 3.02759C23.9586 1.1736 22.1111 -0.0145685 20.0799 0.00013492H20.0642ZM20.064 3.13739C20.8427 3.13193 21.5508 3.58747 21.8685 4.29817L22.198 5.01974C23.0322 6.874 24.5171 8.35843 26.3719 9.19229L27.0624 9.49033C28.0335 9.93944 28.4872 11.0665 28.098 12.0629L27.8469 12.7374C27.1171 14.6195 27.1171 16.7063 27.8469 18.5884L28.1137 19.357C28.4994 20.3316 28.0501 21.4372 27.0937 21.8668L26.3719 22.1962C24.5171 23.0301 23.0322 24.5145 22.198 26.3688L21.8999 27.059C21.5782 27.7755 20.8654 28.2363 20.0797 28.2354C19.8225 28.2313 19.5678 28.1835 19.3265 28.0943L18.6518 27.8433C17.7074 27.4725 16.7007 27.2862 15.6861 27.2943C14.6935 27.2868 13.7084 27.4678 12.7832 27.8276L12.0144 28.0943C11.7906 28.1875 11.5506 28.2354 11.3082 28.2354C10.5296 28.2409 9.82142 27.7854 9.50374 27.0746L9.17422 26.3531C8.34009 24.4988 6.85518 23.0144 5.00032 22.1805L4.3099 21.9609C3.33881 21.5118 2.88508 20.3847 3.27427 19.3884L3.52533 18.7139C4.25515 16.8318 4.25515 14.745 3.52533 12.8629L3.25858 12.0943C2.87288 11.1196 3.32216 10.0141 4.27852 9.58445L5.00032 9.25504C6.87498 8.40519 8.36776 6.89054 9.18991 5.00406L9.48805 4.31386C9.80974 3.59729 10.5226 3.13656 11.3082 3.13739C11.5655 3.14154 11.8202 3.18928 12.0614 3.27857L12.7362 3.52955C13.6756 3.89833 14.6768 4.08466 15.6861 4.07857C16.6788 4.08598 17.6639 3.905 18.589 3.54523L19.3579 3.27857C19.5816 3.18537 19.8216 3.13739 20.064 3.13739ZM21.1311 9.96091C21.1279 9.96089 21.1248 9.96089 21.1216 9.96091H21.1311ZM21.1075 9.96112C21.1028 9.96101 21.0981 9.96094 21.0934 9.96091H21.1216C21.1169 9.96094 21.1122 9.96101 21.1075 9.96112ZM21.1075 9.96112C21.3038 9.96583 21.4915 10.0439 21.6332 10.1805L22.4648 11.0119C22.6134 11.1592 22.6969 11.3596 22.6969 11.5688C22.6969 11.7779 22.6134 11.9783 22.4648 12.1256L13.6463 20.9413C13.5025 21.0905 13.3044 21.1754 13.0971 21.1766C12.889 21.1791 12.6896 21.0937 12.5479 20.9413L8.86044 17.2237C8.71191 17.0764 8.62836 16.8759 8.62836 16.6668C8.62836 16.4577 8.71191 16.2572 8.86044 16.1099L9.69208 15.2786C9.83445 15.1269 10.0332 15.0409 10.2413 15.0409C10.4493 15.0409 10.6481 15.1269 10.7905 15.2786L13.1442 17.6158L20.5819 10.1805C20.7236 10.0439 20.9113 9.96583 21.1075 9.96112Z" fill="black"/>
</svg>
