<svg width="125" height="34" viewBox="0 0 125 34" fill="none" xmlns="http://www.w3.org/2000/svg">
<path d="M42.848 24.6668H46.712V18.0428H48.392L52.496 24.6668H56.624L52.088 17.3708C54.104 16.7708 55.616 15.4028 55.616 12.8108V12.7148C55.616 9.16276 53.048 7.50676 48.992 7.50676H42.848V24.6668ZM46.712 15.4028V10.4828H48.896C50.768 10.4828 51.824 11.0828 51.824 12.8348V12.9308C51.824 14.5868 50.84 15.4028 48.896 15.4028H46.712Z" fill="black"/>
<path d="M63.2563 24.9308C66.6883 24.9308 68.8483 23.4188 69.2563 20.7068H65.9683C65.7523 21.7628 64.9603 22.4588 63.3523 22.4588C61.4563 22.4588 60.3283 21.2588 60.2323 19.1708H69.2803V18.2108C69.2803 13.7228 66.4003 11.8268 63.1603 11.8268C59.5123 11.8268 56.7043 14.3948 56.7043 18.3548V18.5468C56.7043 22.5548 59.4643 24.9308 63.2563 24.9308ZM60.2803 17.0348C60.5443 15.2588 61.6003 14.2268 63.1603 14.2268C64.8163 14.2268 65.7763 15.1388 65.8963 17.0348H60.2803Z" fill="black"/>
<path d="M70.9342 24.6668H74.3902V6.42676H70.9342V24.6668Z" fill="black"/>
<path d="M81.0208 24.9308C83.0848 24.9308 84.3568 23.9708 85.0048 22.6988V24.6668H88.4608V12.1148H85.0048V19.4828C85.0048 21.3308 83.8528 22.2428 82.3888 22.2428C80.9008 22.2428 80.2048 21.4268 80.2048 19.7228V12.1148H76.7488V20.2028C76.7488 23.4908 78.5728 24.9308 81.0208 24.9308Z" fill="black"/>
<path d="M90.8201 24.6668H94.3001V17.2508C94.3001 15.5468 95.3801 14.6828 96.7241 14.6828C97.9481 14.6828 98.6921 15.4028 98.6921 17.0108V24.6668H102.148V17.2508C102.148 15.5468 103.228 14.6828 104.572 14.6828C105.82 14.6828 106.54 15.4028 106.54 17.0108V24.6668H109.996V16.6268C109.996 13.2908 108.196 11.8268 105.868 11.8268C104.284 11.8268 102.652 12.4988 101.644 14.0108C101.044 12.5228 99.7961 11.8268 98.1401 11.8268C96.2681 11.8268 94.9241 12.8588 94.3001 14.0348V12.1148H90.8201V24.6668Z" fill="black"/>
<path d="M118.033 24.9308C121.465 24.9308 123.625 23.4188 124.033 20.7068H120.745C120.529 21.7628 119.737 22.4588 118.129 22.4588C116.233 22.4588 115.105 21.2588 115.009 19.1708H124.057V18.2108C124.057 13.7228 121.177 11.8268 117.937 11.8268C114.289 11.8268 111.481 14.3948 111.481 18.3548V18.5468C111.481 22.5548 114.241 24.9308 118.033 24.9308ZM115.057 17.0348C115.321 15.2588 116.377 14.2268 117.937 14.2268C119.593 14.2268 120.553 15.1388 120.673 17.0348H115.057Z" fill="black"/>
<path fill-rule="evenodd" clip-rule="evenodd" d="M29.55 8.53333L29.3167 8.11667C29.0157 7.61281 28.5912 7.19405 28.0833 6.9L16.9 0.45C16.3936 0.156244 15.8188 0.00103891 15.2333 0H14.75C14.1646 0.00103891 13.5897 0.156244 13.0833 0.45L1.9 6.91667C1.39496 7.20876 0.975425 7.62829 0.683333 8.13333L0.45 8.55C0.156244 9.0564 0.0010389 9.63123 0 10.2167V23.1333C0.0010389 23.7188 0.156244 24.2936 0.45 24.8L0.683333 25.2167C0.982983 25.7159 1.40081 26.1337 1.9 26.4333L13.1 32.8833C13.6038 33.1832 14.1804 33.3389 14.7667 33.3333H15.2333C15.8188 33.3323 16.3936 33.1771 16.9 32.8833L28.0833 26.4167C28.5934 26.1312 29.0145 25.7101 29.3 25.2L29.55 24.7833C29.8402 24.2755 29.9951 23.7016 30 23.1167V10.2C29.999 9.61457 29.8438 9.03973 29.55 8.53333ZM14.75 3.33333H15.2333L25 8.96666L15 14.7333L5 8.96666L14.75 3.33333ZM16.6666 29.1667L26.4166 23.5333L26.6666 23.1167V11.85L16.6666 17.6333V29.1667Z" fill="black"/>
<path d="M14.75 3.33301H15.2333L25 8.96634L15 14.733L5 8.96634L14.75 3.33301Z" fill="white"/>
<path d="M26.4167 23.5334L16.6667 29.1668V17.6334L26.6667 11.8501V23.1168L26.4167 23.5334Z" fill="white"/>
</svg>
