<svg width="180" height="180" viewBox="0 0 180 180" fill="none" xmlns="http://www.w3.org/2000/svg">
<circle cx="44.25" cy="90" r="6.375" stroke="white" stroke-width="2.25"/>
<circle cx="136.5" cy="90" r="6.375" stroke="white" stroke-width="2.25"/>
<path fill-rule="evenodd" clip-rule="evenodd" d="M88.1227 43.5238C88.1621 44.1438 87.6915 44.6785 87.0714 44.718C65.8693 46.068 48.6247 61.9813 45.2313 82.5637C44.9101 82.5217 44.5824 82.5 44.2497 82.5C43.8044 82.5 43.3683 82.5388 42.9443 82.6132C46.3398 60.8072 64.5295 43.8988 86.9284 42.4725C87.5485 42.433 88.0832 42.9037 88.1227 43.5238ZM42.9443 97.3868C46.2422 118.566 63.4964 135.125 85.0084 137.366C85.6263 137.431 86.1795 136.982 86.2439 136.364C86.3083 135.746 85.8595 135.193 85.2415 135.129C64.8832 133.008 48.5266 117.423 45.2314 97.4364C44.9101 97.4784 44.5824 97.5 44.2497 97.5C43.8044 97.5 43.3683 97.4612 42.9443 97.3868ZM91.8772 43.5238C91.9167 42.9037 92.4514 42.433 93.0714 42.4725C115.438 43.8967 133.608 60.7587 137.041 82.5192C136.862 82.5065 136.682 82.5 136.5 82.5C135.912 82.5 135.339 82.5678 134.79 82.6959C131.449 62.0494 114.176 46.0709 92.9284 44.718C92.3084 44.6785 91.8377 44.1438 91.8772 43.5238ZM136.5 97.5C136.682 97.5 136.862 97.4936 137.041 97.4809C133.707 118.615 116.472 135.129 94.9915 137.366C94.3735 137.431 93.8204 136.982 93.756 136.364C93.6916 135.746 94.1404 135.193 94.7584 135.129C115.162 133.003 131.545 117.355 134.79 97.3042C135.339 97.4323 135.912 97.5 136.5 97.5Z" fill="white"/>
<path d="M81 39.1958L87.1098 43.4142L82.8914 49.524" stroke="white" stroke-width="2.25" stroke-linecap="round" stroke-linejoin="round"/>
<path d="M99.1824 140.674L92.7976 136.885L96.5869 130.5" stroke="white" stroke-width="2.25" stroke-linecap="round" stroke-linejoin="round"/>
<path d="M74.25 62.625H92.1833C96.5326 62.625 100.058 66.1508 100.058 70.5V76.8158C100.058 81.165 96.5326 84.6908 92.1833 84.6908H78.623C76.186 84.6908 73.8307 85.5698 71.9896 87.1664L66.9957 91.4971C66.7529 91.7076 66.375 91.5352 66.375 91.2138V75.6842V70.5C66.375 66.1508 69.9008 62.625 74.25 62.625Z" stroke="white" stroke-width="2.25"/>
<path d="M75.1499 70.5752H90.8249" stroke="white" stroke-width="2.25" stroke-linecap="round"/>
<path d="M75.1499 77.1748H90.8249" stroke="white" stroke-width="2.25" stroke-linecap="round"/>
<path d="M105.683 92.625H87.75C83.4008 92.625 79.875 96.1508 79.875 100.5V106.816C79.875 111.165 83.4008 114.691 87.75 114.691H101.31C103.747 114.691 106.103 115.57 107.944 117.166L112.938 121.497C113.18 121.708 113.558 121.535 113.558 121.214V105.684V100.5C113.558 96.1508 110.033 92.625 105.683 92.625Z" stroke="white" stroke-width="2.25"/>
<path d="M92.7755 104.464L94.7922 106.35L101.851 99.75" stroke="white" stroke-width="2.25" stroke-linecap="round"/>
</svg>
