<svg width="180" height="180" viewBox="0 0 180 180" fill="none" xmlns="http://www.w3.org/2000/svg">
<path fill-rule="evenodd" clip-rule="evenodd" d="M69.2775 46.46L69.0325 46.0225C68.7165 45.4935 68.2708 45.0538 67.7375 44.745L55.995 37.9725C55.4633 37.6641 54.8597 37.5011 54.245 37.5H53.7375C53.1228 37.5011 52.5192 37.6641 51.9875 37.9725L40.245 44.7625C39.7147 45.0692 39.2742 45.5097 38.9675 46.04L38.7225 46.4775C38.4141 47.0092 38.2511 47.6128 38.25 48.2275V61.79C38.2511 62.4047 38.4141 63.0083 38.7225 63.54L38.9675 63.9775C39.2821 64.5016 39.7209 64.9404 40.245 65.255L52.005 72.0275C52.534 72.3423 53.1394 72.5058 53.755 72.5H54.245C54.8597 72.4989 55.4633 72.3359 55.995 72.0275L67.7375 65.2375C68.2731 64.9377 68.7152 64.4956 69.015 63.96L69.2775 63.5225C69.5822 62.9892 69.7449 62.3867 69.75 61.7725V48.21C69.7489 47.5953 69.5859 46.9917 69.2775 46.46ZM53.7375 41.0001H54.245L64.5 46.9151L54 52.9701L43.5 46.9151L53.7375 41.0001ZM55.7501 68.1251L65.9876 62.2101L66.2501 61.7726V49.9426L55.7501 56.0151V68.1251Z" fill="white"/>
<path fill-rule="evenodd" clip-rule="evenodd" d="M69.75 57.375H134.25C138.599 57.375 142.125 60.9008 142.125 65.25V82.125C142.125 86.4742 138.599 90 134.25 90H48C42.4081 90 37.875 94.5331 37.875 100.125V117C37.875 122.592 42.4081 127.125 48 127.125H113.25V124.875H48C43.6508 124.875 40.125 121.349 40.125 117V100.125C40.125 95.7758 43.6508 92.25 48 92.25H134.25C139.842 92.25 144.375 87.7169 144.375 82.125V65.25C144.375 59.6581 139.842 55.125 134.25 55.125H69.75V57.375Z" fill="white"/>
<path fill-rule="evenodd" clip-rule="evenodd" d="M126.375 142.5C135.695 142.5 143.25 134.945 143.25 125.625C143.25 116.305 135.695 108.75 126.375 108.75C117.055 108.75 109.5 116.305 109.5 125.625C109.5 134.945 117.055 142.5 126.375 142.5ZM129.394 128.571L130.957 123.666C131.658 121.779 133.005 120.054 135.593 120.054L131.927 128.895C131.28 130.997 129.34 132.398 127.184 132.398C127.184 132.398 126.105 124.744 126.105 124.582L124.488 128.787C123.788 130.62 122.386 132.398 119.798 132.398L117.75 120C119.798 120.054 121.47 121.617 121.685 123.666C121.685 123.666 121.955 128.194 121.955 128.571L123.841 123.612C124.542 121.779 125.836 120 128.316 120C128.316 120 129.394 128.194 129.394 128.571Z" fill="white"/>
<path fill-rule="evenodd" clip-rule="evenodd" d="M104.25 56.25C104.25 58.7353 102.235 60.75 99.75 60.75C97.2647 60.75 95.25 58.7353 95.25 56.25C95.25 53.7647 97.2647 51.75 99.75 51.75C102.235 51.75 104.25 53.7647 104.25 56.25Z" fill="white"/>
<path fill-rule="evenodd" clip-rule="evenodd" d="M147.75 73.5C147.75 75.9853 145.735 78 143.25 78C140.765 78 138.75 75.9853 138.75 73.5C138.75 71.0147 140.765 69 143.25 69C145.735 69 147.75 71.0147 147.75 73.5Z" fill="white"/>
<path fill-rule="evenodd" clip-rule="evenodd" d="M115.5 90.75C115.5 93.2353 113.485 95.25 111 95.25C108.515 95.25 106.5 93.2353 106.5 90.75C106.5 88.2647 108.515 86.25 111 86.25C113.485 86.25 115.5 88.2647 115.5 90.75Z" fill="white"/>
<path fill-rule="evenodd" clip-rule="evenodd" d="M74.25 90.75C74.25 93.2353 72.2353 95.25 69.75 95.25C67.2647 95.25 65.25 93.2353 65.25 90.75C65.25 88.2647 67.2647 86.25 69.75 86.25C72.2353 86.25 74.25 88.2647 74.25 90.75Z" fill="white"/>
<path fill-rule="evenodd" clip-rule="evenodd" d="M43.5 108.75C43.5 111.235 41.4853 113.25 39 113.25C36.5147 113.25 34.5 111.235 34.5 108.75C34.5 106.265 36.5147 104.25 39 104.25C41.4853 104.25 43.5 106.265 43.5 108.75Z" fill="white"/>
<path fill-rule="evenodd" clip-rule="evenodd" d="M94.5 126C94.5 128.485 92.4853 130.5 90 130.5C87.5147 130.5 85.5 128.485 85.5 126C85.5 123.515 87.5147 121.5 90 121.5C92.4853 121.5 94.5 123.515 94.5 126Z" fill="white"/>
</svg>
