<svg width="180" height="180" viewBox="0 0 180 180" fill="none" xmlns="http://www.w3.org/2000/svg">
<rect x="39.375" y="38.625" width="102.75" height="12.75" rx="6.375" stroke="white" stroke-width="2.25"/>
<rect x="96.375" y="119.625" width="45.75" height="21.75" rx="7.875" stroke="white" stroke-width="2.25"/>
<rect x="39.375" y="62.625" width="45.75" height="45.75" rx="7.875" stroke="white" stroke-width="2.25"/>
<path fill-rule="evenodd" clip-rule="evenodd" d="M77.5275 77.21L77.2825 76.7725C76.9665 76.2435 76.5208 75.8038 75.9875 75.495L64.245 68.7225C63.7133 68.4141 63.1097 68.2511 62.495 68.25H61.9875C61.3728 68.2511 60.7692 68.4141 60.2375 68.7225L48.495 75.5125C47.9647 75.8192 47.5242 76.2597 47.2175 76.79L46.9725 77.2275C46.6641 77.7592 46.5011 78.3628 46.5 78.9775V92.54C46.5011 93.1547 46.6641 93.7583 46.9725 94.29L47.2175 94.7275C47.5321 95.2517 47.9709 95.6904 48.495 96.005L60.255 102.778C60.784 103.092 61.3894 103.256 62.005 103.25H62.495C63.1097 103.249 63.7133 103.086 64.245 102.778L75.9875 95.9875C76.5231 95.6877 76.9652 95.2456 77.265 94.71L77.5275 94.2725C77.8322 93.7392 77.9949 93.1367 78 92.5225V78.96C77.9989 78.3453 77.8359 77.7417 77.5275 77.21ZM61.9875 71.7497H62.495L72.75 77.6647L62.25 83.7197L51.75 77.6647L61.9875 71.7497ZM64.0001 98.8748L74.2376 92.9598L74.5001 92.5223V80.6923L64.0001 86.7648V98.8748Z" fill="white"/>
<path d="M96.75 69.75H141.75" stroke="white" stroke-width="2.25" stroke-linecap="round"/>
<path d="M96.75 80.25H132" stroke="white" stroke-width="2.25" stroke-linecap="round"/>
<path d="M96.75 90.75H141.75" stroke="white" stroke-width="2.25" stroke-linecap="round"/>
<path d="M96.75 101.25H132" stroke="white" stroke-width="2.25" stroke-linecap="round"/>
<circle cx="44.25" cy="130.5" r="4.875" stroke="white" stroke-width="2.25"/>
<circle cx="62.25" cy="130.5" r="4.875" stroke="white" stroke-width="2.25"/>
<circle cx="80.25" cy="130.5" r="4.875" stroke="white" stroke-width="2.25"/>
</svg>
