<svg xmlns="http://www.w3.org/2000/svg" fill="none" viewBox="0 0 16 20" height="20" width="16">
<path fill="currentColor" d="M4 8H14C15.1046 8 16 8.89543 16 10V18C16 19.1046 15.1046 20 14 20H2C0.89543 20 0 19.1046 0 18V10C0 8.89543 0.89543 8 2 8V6C2 2.68629 4.68629 0 8 0C11.3137 0 14 2.68629 14 6H12C12 3.79086 10.2091 2 8 2C5.79086 2 4 3.79086 4 6V8ZM9 16C9.55229 16 10 15.5523 10 15V13C10 12.4477 9.55229 12 9 12H7C6.44772 12 6 12.4477 6 13V15C6 15.5523 6.44772 16 7 16H9Z" clip-rule="evenodd" fill-rule="evenodd"></path>
</svg>