<svg xmlns="http://www.w3.org/2000/svg" fill="none" viewBox="0 0 125 34" height="34" width="125">
<g clip-path="url(#clip0)">
<path fill="currentColor" d="M42.8481 24.6668H46.7121V18.0428H48.3921L52.4961 24.6668H56.6241L52.0881 17.3708C54.1041 16.7708 55.6161 15.4028 55.6161 12.8108V12.7148C55.6161 9.16276 53.0481 7.50676 48.9921 7.50676H42.8481V24.6668ZM46.7121 15.4028V10.4828H48.8961C50.7681 10.4828 51.8241 11.0828 51.8241 12.8348V12.9308C51.8241 14.5868 50.8401 15.4028 48.8961 15.4028H46.7121Z"></path>
<path fill="currentColor" d="M63.2564 24.9308C66.6884 24.9308 68.8484 23.4188 69.2564 20.7068H65.9684C65.7524 21.7628 64.9604 22.4588 63.3524 22.4588C61.4564 22.4588 60.3284 21.2588 60.2324 19.1708H69.2804V18.2108C69.2804 13.7228 66.4004 11.8268 63.1604 11.8268C59.5124 11.8268 56.7044 14.3948 56.7044 18.3548V18.5468C56.7044 22.5548 59.4644 24.9308 63.2564 24.9308ZM60.2804 17.0348C60.5444 15.2588 61.6004 14.2268 63.1604 14.2268C64.8164 14.2268 65.7764 15.1388 65.8964 17.0348H60.2804Z"></path>
<path fill="currentColor" d="M70.9343 24.6668H74.3903V6.42676H70.9343V24.6668Z"></path>
<path fill="currentColor" d="M81.0209 24.9308C83.0849 24.9308 84.3569 23.9708 85.0049 22.6988V24.6668H88.4609V12.1148H85.0049V19.4828C85.0049 21.3308 83.8529 22.2428 82.3889 22.2428C80.9009 22.2428 80.2049 21.4268 80.2049 19.7228V12.1148H76.7489V20.2028C76.7489 23.4908 78.5729 24.9308 81.0209 24.9308Z"></path>
<path fill="currentColor" d="M90.8202 24.6668H94.3002V17.2508C94.3002 15.5468 95.3802 14.6828 96.7242 14.6828C97.9482 14.6828 98.6922 15.4028 98.6922 17.0108V24.6668H102.148V17.2508C102.148 15.5468 103.228 14.6828 104.572 14.6828C105.82 14.6828 106.54 15.4028 106.54 17.0108V24.6668H109.996V16.6268C109.996 13.2908 108.196 11.8268 105.868 11.8268C104.284 11.8268 102.652 12.4988 101.644 14.0108C101.044 12.5228 99.7962 11.8268 98.1402 11.8268C96.2682 11.8268 94.9242 12.8588 94.3002 14.0348V12.1148H90.8202V24.6668Z"></path>
<path fill="currentColor" d="M118.033 24.9308C121.465 24.9308 123.625 23.4188 124.033 20.7068H120.745C120.529 21.7628 119.737 22.4588 118.129 22.4588C116.233 22.4588 115.105 21.2588 115.009 19.1708H124.057V18.2108C124.057 13.7228 121.177 11.8268 117.937 11.8268C114.289 11.8268 111.481 14.3948 111.481 18.3548V18.5468C111.481 22.5548 114.241 24.9308 118.033 24.9308ZM115.057 17.0348C115.321 15.2588 116.377 14.2268 117.937 14.2268C119.593 14.2268 120.553 15.1388 120.673 17.0348H115.057Z"></path>
<path fill="currentColor" d="M29.55 8.53333L29.3167 8.11667C29.0157 7.61281 28.5912 7.19405 28.0833 6.9L16.9 0.45C16.3936 0.156244 15.8188 0.0010389 15.2333 0H14.75C14.1646 0.0010389 13.5897 0.156244 13.0833 0.45L1.9 6.91667C1.39496 7.20876 0.975425 7.62829 0.683333 8.13333L0.45 8.55C0.156244 9.0564 0.0010389 9.63123 0 10.2167V23.1333C0.0010389 23.7188 0.156244 24.2936 0.45 24.8L0.683333 25.2167C0.982983 25.7159 1.40081 26.1337 1.9 26.4333L13.1 32.8833C13.6038 33.1832 14.1804 33.3389 14.7667 33.3333H15.2333C15.8188 33.3323 16.3936 33.1771 16.9 32.8833L28.0833 26.4167C28.5934 26.1312 29.0145 25.7101 29.3 25.2L29.55 24.7833C29.8402 24.2755 29.9951 23.7016 30 23.1167V10.2C29.999 9.61457 29.8438 9.03973 29.55 8.53333ZM14.75 3.33333H15.2333L25 8.96666L15 14.7333L5 8.96666L14.75 3.33333ZM16.6666 29.1667L26.4166 23.5333L26.6666 23.1167V11.85L16.6666 17.6333V29.1667Z" clip-rule="evenodd" fill-rule="evenodd"></path>
</g>
<defs>
<clipPath id="clip0">
<rect fill="white" height="33.3335" width="124.057"></rect>
</clipPath>
</defs>
</svg>