<svg width="180" height="180" viewBox="0 0 180 180" fill="none" xmlns="http://www.w3.org/2000/svg">
<path d="M39.375 46.5C39.375 42.1508 42.9008 38.625 47.25 38.625H134.25C138.599 38.625 142.125 42.1508 142.125 46.5V51.375H39.375V46.5Z" stroke="white" stroke-width="2.25"/>
<circle cx="48" cy="45" r="2.25" fill="white"/>
<circle cx="55.5" cy="45" r="2.25" fill="white"/>
<circle cx="63" cy="45" r="2.25" fill="white"/>
<rect x="39.375" y="62.625" width="102.75" height="45.75" rx="7.875" stroke="white" stroke-width="2.25"/>
<rect x="39.375" y="119.625" width="45.75" height="21.75" rx="7.875" stroke="white" stroke-width="2.25"/>
<path fill-rule="evenodd" clip-rule="evenodd" d="M90.3717 70.5083L91.1313 70.5083C91.545 70.5014 91.9353 70.6999 92.1735 71.0383L96.1482 76.7794C96.8024 77.7681 97.0725 78.9618 96.9078 80.1358L96.3868 84.4725C97.9072 85.1908 98.763 86.8338 98.4802 88.4913L97.438 94.5151C97.3765 94.8498 97.0584 95.0736 96.7226 95.0185L96.1043 94.9125C95.1249 94.7397 94.2543 94.1846 93.6844 93.3695C93.1145 92.5544 92.892 91.5461 93.0659 90.5669L93.2955 89.2244L88.155 89.2243L88.3847 90.5668C88.5586 91.5461 88.3361 92.5543 87.7662 93.3694C87.1963 94.1845 86.3258 94.7395 85.3463 94.9124L84.7281 95.0183C84.3923 95.0735 84.0741 94.8496 84.0126 94.5149L82.9703 88.4911C82.6874 86.8336 83.5432 85.1906 85.0636 84.4724L84.5159 80.1091C84.3809 78.934 84.6793 77.7501 85.3549 76.7793L89.3294 71.0382C89.5676 70.6998 89.9579 70.5014 90.3717 70.5083ZM86.7065 79.8793L87.5634 87.0601L93.9405 87.0602L94.7971 79.8618C94.8591 79.2204 94.6967 78.5774 94.3378 78.0423L93.2337 76.4436L88.2698 76.4435L87.1658 78.0422C86.8038 78.5825 86.6414 79.2322 86.7065 79.8793ZM88.8794 81.0982C88.915 82.1066 89.7428 82.9057 90.7519 82.9057C91.761 82.9058 92.5888 82.1066 92.6244 81.0982C92.5887 80.0898 91.7609 79.2906 90.7518 79.2906C89.7428 79.2906 88.915 80.0897 88.8794 81.0982ZM89.6891 93.7C89.8068 93.5823 89.9667 93.5164 90.1332 93.5171L91.3698 93.5171C91.5363 93.5165 91.6962 93.5823 91.814 93.7001C91.9317 93.8178 91.9976 93.9777 91.9969 94.1443L91.997 99.903C91.9977 100.07 91.9318 100.229 91.8141 100.347C91.6963 100.465 91.5364 100.531 91.3699 100.53L90.1334 100.53C89.9668 100.531 89.8069 100.465 89.6892 100.347C89.5714 100.229 89.5056 100.07 89.5062 99.903L89.5062 94.1442C89.5055 93.9777 89.5713 93.8178 89.6891 93.7Z" fill="white"/>
<path d="M96.75 124.5H141.75" stroke="white" stroke-width="2.25" stroke-linecap="round"/>
<path d="M96.75 135H132" stroke="white" stroke-width="2.25" stroke-linecap="round"/>
<path d="M39.75 74.3304C43.1807 72.0857 51.1857 74.3304 49.2798 81.8125C53.0917 81.4384 57.2085 84.0572 55.3788 90.0429C59.1907 88.9206 64.6799 91.7638 62.2403 98.6473C66.8146 96.7768 73.2948 100.892 70.6265 108" stroke="white" stroke-width="2.25"/>
<path d="M141.75 74.3304C138.319 72.0857 130.314 74.3304 132.22 81.8125C128.408 81.4384 124.291 84.0572 126.121 90.0429C122.309 88.9206 116.82 91.7638 119.26 98.6473C114.685 96.7768 108.205 100.892 110.874 108" stroke="white" stroke-width="2.25"/>
</svg>
