<svg width="151" height="81" viewBox="0 0 151 81" fill="none" xmlns="http://www.w3.org/2000/svg">
<path d="M148.772 51.1589C149.102 51.5537 149.77 52.534 149.234 52.8438C143 56.7358 136.934 60.9206 131.115 65.3538C130.544 65.781 129.696 65.1972 129.247 64.7734C128.959 64.4517 128.053 63.4135 128.701 62.9421C133.873 58.9803 139.214 55.3112 144.682 51.8616C134.424 54.2711 123.97 56.6959 113.476 56.2173C108.641 55.9839 103.782 55.1788 99.2826 53.5805C94.2656 51.7933 89.8725 48.9628 86.1533 45.3529C81.6973 40.9976 78.264 35.759 75.6817 30.2242C75.4281 29.7851 75.3544 28.9495 76.1021 29.0057C76.8499 29.0619 77.6635 29.7631 77.9671 30.466C80.1535 34.9608 82.8075 39.3808 86.2545 43.0503C89.4558 46.4712 93.2122 49.0838 97.677 50.7995C106.564 54.1577 116.449 54.1104 125.845 52.6863C130.913 51.907 135.889 50.7907 140.941 49.6302C137.182 47.8975 133.747 45.4892 130.842 42.5805C130.512 42.1857 129.809 41.3228 130.295 40.7492C130.824 40.2489 131.799 41.0522 132.163 41.3297C136.136 45.3787 141.311 48.1479 147.129 49.3752C147.842 49.5488 148.622 50.3675 148.806 51.0414C148.806 51.0414 148.849 51.1146 148.772 51.1589Z" fill="black"/>
<path d="M1.09134 3.82414C1.09134 2.8428 1.47534 2.06947 2.24334 1.50414C3.01134 0.928137 3.934 0.640137 5.01134 0.640137C6.206 0.640137 7.18734 0.970804 7.95534 1.63214C8.72334 2.29347 9.118 3.07747 9.13934 3.98414C9.13934 4.0908 9.086 4.14414 8.97934 4.14414H7.28334C7.18734 4.14414 7.134 4.0908 7.12334 3.98414C7.04867 3.50414 6.814 3.13614 6.41934 2.88014C6.03534 2.62414 5.55534 2.49614 4.97934 2.49614C4.43534 2.49614 3.98734 2.6028 3.63534 2.81614C3.28334 3.02947 3.10734 3.33347 3.10734 3.72814C3.10734 4.1548 3.33134 4.49614 3.77934 4.75214C4.238 5.00814 4.89934 5.2588 5.76334 5.50414C6.29667 5.65347 6.76067 5.80814 7.15534 5.96814C7.56067 6.12814 7.95 6.3308 8.32334 6.57614C8.69667 6.82147 8.97934 7.1148 9.17134 7.45614C9.374 7.79747 9.47534 8.18147 9.47534 8.60814C9.47534 9.72814 9.086 10.6028 8.30734 11.2321C7.52867 11.8508 6.478 12.1601 5.15534 12.1601C3.918 12.1601 2.88867 11.7975 2.06734 11.0721C1.246 10.3361 0.830003 9.44014 0.819336 8.38414C0.819336 8.27747 0.872669 8.22414 0.979336 8.22414H2.65934C2.75534 8.22414 2.80867 8.27747 2.81934 8.38414C2.87267 9.01347 3.11267 9.49347 3.53934 9.82414C3.97667 10.1441 4.54734 10.3041 5.25134 10.3041C5.92334 10.3041 6.45667 10.1708 6.85134 9.90414C7.25667 9.6268 7.45934 9.26414 7.45934 8.81614C7.45934 8.11214 6.61134 7.5468 4.91534 7.12014C3.62467 6.78947 2.66467 6.3788 2.03534 5.88814C1.406 5.3868 1.09134 4.6988 1.09134 3.82414Z" fill="black"/>
<path d="M13.1886 7.04014V10.1441H18.4686C18.5753 10.1441 18.6286 10.1975 18.6286 10.3041V11.8401C18.6286 11.9468 18.5753 12.0001 18.4686 12.0001H11.3326C11.2259 12.0001 11.1726 11.9468 11.1726 11.8401V0.960136C11.1726 0.85347 11.2259 0.800137 11.3326 0.800137H18.2286C18.3353 0.800137 18.3886 0.85347 18.3886 0.960136V2.49614C18.3886 2.6028 18.3353 2.65614 18.2286 2.65614H13.1886V5.18414H17.7486C17.8553 5.18414 17.9086 5.23747 17.9086 5.34414V6.88014C17.9086 6.9868 17.8553 7.04014 17.7486 7.04014H13.1886Z" fill="black"/>
<path d="M22.493 7.04014V10.1441H27.773C27.8796 10.1441 27.933 10.1975 27.933 10.3041V11.8401C27.933 11.9468 27.8796 12.0001 27.773 12.0001H20.637C20.5303 12.0001 20.477 11.9468 20.477 11.8401V0.960136C20.477 0.85347 20.5303 0.800137 20.637 0.800137H27.533C27.6396 0.800137 27.693 0.85347 27.693 0.960136V2.49614C27.693 2.6028 27.6396 2.65614 27.533 2.65614H22.493V5.18414H27.053C27.1596 5.18414 27.213 5.23747 27.213 5.34414V6.88014C27.213 6.9868 27.1596 7.04014 27.053 7.04014H22.493Z" fill="black"/>
<path d="M36.5548 7.28014V11.8401C36.5548 11.9468 36.5015 12.0001 36.3948 12.0001H34.6988C34.5922 12.0001 34.5388 11.9468 34.5388 11.8401V0.960136C34.5388 0.85347 34.5922 0.800137 34.6988 0.800137H41.8028C41.9095 0.800137 41.9628 0.85347 41.9628 0.960136V2.49614C41.9628 2.6028 41.9095 2.65614 41.8028 2.65614H36.5548V5.42414H41.2908C41.3975 5.42414 41.4508 5.47747 41.4508 5.58414V7.12014C41.4508 7.2268 41.3975 7.28014 41.2908 7.28014H36.5548Z" fill="black"/>
<path d="M50.7273 11.8081C50.0767 12.0428 49.3993 12.1601 48.6953 12.1601C47.9913 12.1601 47.314 12.0428 46.6633 11.8081C46.0127 11.5628 45.4207 11.2108 44.8873 10.7521C44.3647 10.2935 43.9433 9.6908 43.6233 8.94414C43.314 8.1868 43.1593 7.3388 43.1593 6.40014C43.1593 5.46147 43.314 4.6188 43.6233 3.87214C43.9433 3.1148 44.3647 2.5068 44.8873 2.04814C45.4207 1.58947 46.0127 1.2428 46.6633 1.00814C47.314 0.762803 47.9913 0.640137 48.6953 0.640137C49.3993 0.640137 50.0767 0.762803 50.7273 1.00814C51.378 1.2428 51.9647 1.58947 52.4873 2.04814C53.0207 2.5068 53.442 3.1148 53.7513 3.87214C54.0713 4.6188 54.2313 5.46147 54.2313 6.40014C54.2313 7.3388 54.0713 8.1868 53.7513 8.94414C53.442 9.6908 53.0207 10.2935 52.4873 10.7521C51.9647 11.2108 51.378 11.5628 50.7273 11.8081ZM46.2473 9.29614C46.9193 9.96814 47.7353 10.3041 48.6953 10.3041C49.6553 10.3041 50.4713 9.96814 51.1433 9.29614C51.8153 8.61347 52.1513 7.64814 52.1513 6.40014C52.1513 5.15214 51.8153 4.19214 51.1433 3.52014C50.4713 2.83747 49.6553 2.49614 48.6953 2.49614C47.7353 2.49614 46.9193 2.83747 46.2473 3.52014C45.5753 4.19214 45.2393 5.15214 45.2393 6.40014C45.2393 7.64814 45.5753 8.61347 46.2473 9.29614Z" fill="black"/>
<path d="M56.1163 11.8401V0.960136C56.1163 0.85347 56.1697 0.800137 56.2763 0.800137H60.6443C61.679 0.800137 62.5057 1.07214 63.1243 1.61614C63.7537 2.14947 64.0683 2.89614 64.0683 3.85614C64.0683 4.52814 63.871 5.12547 63.4763 5.64814C63.0817 6.16014 62.591 6.5388 62.0043 6.78414L64.3883 11.8401C64.399 11.8615 64.4043 11.8828 64.4043 11.9041C64.4043 11.9681 64.3563 12.0001 64.2603 12.0001H62.4203C62.335 12.0001 62.2603 11.9468 62.1963 11.8401L59.7963 6.91214H58.1323V11.8401C58.1323 11.9468 58.079 12.0001 57.9723 12.0001H56.2763C56.1697 12.0001 56.1163 11.9468 56.1163 11.8401ZM58.1323 2.65614V5.05614H60.7243C61.1297 5.05614 61.4497 4.94947 61.6843 4.73614C61.9297 4.5228 62.0523 4.22947 62.0523 3.85614C62.0523 3.4828 61.9297 3.18947 61.6843 2.97614C61.4497 2.7628 61.1297 2.65614 60.7243 2.65614H58.1323Z" fill="black"/>
<path d="M78.3742 0.960136L74.9342 8.06414V11.8401C74.9342 11.9468 74.8809 12.0001 74.7742 12.0001H73.0782C72.9715 12.0001 72.9182 11.9468 72.9182 11.8401V8.06414L69.4782 0.960136C69.4675 0.938803 69.4622 0.91747 69.4622 0.896137C69.4622 0.832137 69.4995 0.800137 69.5742 0.800137H71.4462C71.5529 0.800137 71.6222 0.842803 71.6542 0.928137L73.9262 5.96814L76.1982 0.928137C76.2302 0.842803 76.2995 0.800137 76.4062 0.800137H78.2782C78.3529 0.800137 78.3902 0.832137 78.3902 0.896137C78.3902 0.91747 78.3849 0.938803 78.3742 0.960136Z" fill="black"/>
<path d="M86.148 11.8081C85.4973 12.0428 84.82 12.1601 84.116 12.1601C83.412 12.1601 82.7346 12.0428 82.084 11.8081C81.4333 11.5628 80.8413 11.2108 80.308 10.7521C79.7853 10.2935 79.364 9.6908 79.044 8.94414C78.7346 8.1868 78.58 7.3388 78.58 6.40014C78.58 5.46147 78.7346 4.6188 79.044 3.87214C79.364 3.1148 79.7853 2.5068 80.308 2.04814C80.8413 1.58947 81.4333 1.2428 82.084 1.00814C82.7346 0.762803 83.412 0.640137 84.116 0.640137C84.82 0.640137 85.4973 0.762803 86.148 1.00814C86.7986 1.2428 87.3853 1.58947 87.908 2.04814C88.4413 2.5068 88.8626 3.1148 89.172 3.87214C89.492 4.6188 89.652 5.46147 89.652 6.40014C89.652 7.3388 89.492 8.1868 89.172 8.94414C88.8626 9.6908 88.4413 10.2935 87.908 10.7521C87.3853 11.2108 86.7986 11.5628 86.148 11.8081ZM81.668 9.29614C82.34 9.96814 83.156 10.3041 84.116 10.3041C85.076 10.3041 85.892 9.96814 86.564 9.29614C87.236 8.61347 87.572 7.64814 87.572 6.40014C87.572 5.15214 87.236 4.19214 86.564 3.52014C85.892 2.83747 85.076 2.49614 84.116 2.49614C83.156 2.49614 82.34 2.83747 81.668 3.52014C80.996 4.19214 80.66 5.15214 80.66 6.40014C80.66 7.64814 80.996 8.61347 81.668 9.29614Z" fill="black"/>
<path d="M91.3278 7.68014V0.960136C91.3278 0.85347 91.3812 0.800137 91.4878 0.800137H93.1838C93.2905 0.800137 93.3438 0.85347 93.3438 0.960136V7.66414C93.3438 8.54947 93.5412 9.2108 93.9358 9.64814C94.3305 10.0855 94.8798 10.3041 95.5838 10.3041C96.2878 10.3041 96.8372 10.0855 97.2318 9.64814C97.6265 9.2108 97.8238 8.54947 97.8238 7.66414V0.960136C97.8238 0.85347 97.8772 0.800137 97.9838 0.800137H99.6798C99.7865 0.800137 99.8398 0.85347 99.8398 0.960136V7.68014C99.8398 9.0668 99.4505 10.1601 98.6718 10.9601C97.9038 11.7601 96.8745 12.1601 95.5838 12.1601C94.2932 12.1601 93.2585 11.7601 92.4798 10.9601C91.7118 10.1601 91.3278 9.0668 91.3278 7.68014Z" fill="black"/>
<path d="M101.873 11.8401V0.960136C101.873 0.85347 101.926 0.800137 102.033 0.800137H106.401C107.435 0.800137 108.262 1.07214 108.881 1.61614C109.51 2.14947 109.825 2.89614 109.825 3.85614C109.825 4.52814 109.627 5.12547 109.233 5.64814C108.838 6.16014 108.347 6.5388 107.761 6.78414L110.145 11.8401C110.155 11.8615 110.161 11.8828 110.161 11.9041C110.161 11.9681 110.113 12.0001 110.017 12.0001H108.177C108.091 12.0001 108.017 11.9468 107.953 11.8401L105.553 6.91214H103.889V11.8401C103.889 11.9468 103.835 12.0001 103.729 12.0001H102.033C101.926 12.0001 101.873 11.9468 101.873 11.8401ZM103.889 2.65614V5.05614H106.481C106.886 5.05614 107.206 4.94947 107.441 4.73614C107.686 4.5228 107.809 4.22947 107.809 3.85614C107.809 3.4828 107.686 3.18947 107.441 2.97614C107.206 2.7628 106.886 2.65614 106.481 2.65614H103.889Z" fill="black"/>
<path d="M111.494 3.82414C111.494 2.8428 111.878 2.06947 112.646 1.50414C113.414 0.928137 114.337 0.640137 115.414 0.640137C116.609 0.640137 117.59 0.970804 118.358 1.63214C119.126 2.29347 119.521 3.07747 119.542 3.98414C119.542 4.0908 119.489 4.14414 119.382 4.14414H117.686C117.59 4.14414 117.536 4.0908 117.526 3.98414C117.451 3.50414 117.217 3.13614 116.822 2.88014C116.438 2.62414 115.958 2.49614 115.382 2.49614C114.838 2.49614 114.39 2.6028 114.038 2.81614C113.686 3.02947 113.51 3.33347 113.51 3.72814C113.51 4.1548 113.734 4.49614 114.182 4.75214C114.641 5.00814 115.302 5.2588 116.166 5.50414C116.699 5.65347 117.163 5.80814 117.558 5.96814C117.963 6.12814 118.352 6.3308 118.726 6.57614C119.099 6.82147 119.382 7.1148 119.574 7.45614C119.777 7.79747 119.878 8.18147 119.878 8.60814C119.878 9.72814 119.489 10.6028 118.71 11.2321C117.931 11.8508 116.88 12.1601 115.558 12.1601C114.32 12.1601 113.291 11.7975 112.47 11.0721C111.649 10.3361 111.232 9.44014 111.222 8.38414C111.222 8.27747 111.275 8.22414 111.382 8.22414H113.062C113.158 8.22414 113.211 8.27747 113.222 8.38414C113.275 9.01347 113.515 9.49347 113.942 9.82414C114.379 10.1441 114.95 10.3041 115.654 10.3041C116.326 10.3041 116.859 10.1708 117.254 9.90414C117.659 9.6268 117.862 9.26414 117.862 8.81614C117.862 8.11214 117.014 7.5468 115.318 7.12014C114.027 6.78947 113.067 6.3788 112.438 5.88814C111.809 5.3868 111.494 4.6988 111.494 3.82414Z" fill="black"/>
<path d="M123.591 7.04014V10.1441H128.871C128.978 10.1441 129.031 10.1975 129.031 10.3041V11.8401C129.031 11.9468 128.978 12.0001 128.871 12.0001H121.735C121.628 12.0001 121.575 11.9468 121.575 11.8401V0.960136C121.575 0.85347 121.628 0.800137 121.735 0.800137H128.631C128.738 0.800137 128.791 0.85347 128.791 0.960136V2.49614C128.791 2.6028 128.738 2.65614 128.631 2.65614H123.591V5.18414H128.151C128.258 5.18414 128.311 5.23747 128.311 5.34414V6.88014C128.311 6.9868 128.258 7.04014 128.151 7.04014H123.591Z" fill="black"/>
<path d="M130.879 11.8401V0.960136C130.879 0.85347 130.933 0.800137 131.039 0.800137H132.735C132.842 0.800137 132.895 0.85347 132.895 0.960136V10.1441H138.351C138.458 10.1441 138.511 10.1975 138.511 10.3041V11.8401C138.511 11.9468 138.458 12.0001 138.351 12.0001H131.039C130.933 12.0001 130.879 11.9468 130.879 11.8401Z" fill="black"/>
<path d="M142.262 7.28014V11.8401C142.262 11.9468 142.209 12.0001 142.102 12.0001H140.406C140.3 12.0001 140.246 11.9468 140.246 11.8401V0.960136C140.246 0.85347 140.3 0.800137 140.406 0.800137H147.51C147.617 0.800137 147.67 0.85347 147.67 0.960136V2.49614C147.67 2.6028 147.617 2.65614 147.51 2.65614H142.262V5.42414H146.998C147.105 5.42414 147.158 5.47747 147.158 5.58414V7.12014C147.158 7.2268 147.105 7.28014 146.998 7.28014H142.262Z" fill="black"/>
</svg>
